<?xml version="1.0" encoding="UTF-8"?>
<svg width="226px" height="50px" viewBox="0 0 226 50" version="1.1" xmlns="http://www.w3.org/2000/svg" xmlns:xlink="http://www.w3.org/1999/xlink">
    <title>Group 30 Copy 2</title>
    <defs>
        <polygon id="path-1" points="0.413883582 0.186486486 7.67084478 0.186486486 7.67084478 12.5359459 0.413883582 12.5359459"></polygon>
    </defs>
    <g id="Page-1" stroke="none" stroke-width="1" fill="none" fill-rule="evenodd">
        <g id="SP_COLLET_LP-Copy-5" transform="translate(-75.000000, -134.000000)">
            <g id="Group-30-Copy-2" transform="translate(75.000000, 134.000000)">
                <path d="M35.5711857,30.7874324 C33.4400394,35.6360811 28.6076872,39.0259459 22.9786006,39.0259459 C15.3796036,39.0259459 9.21891104,32.8556757 9.21891104,25.2441892 C9.21891104,17.6340541 15.3796036,11.4631081 22.9786006,11.4631081 C29.1548096,11.4631081 34.3804693,15.5394595 36.1210066,21.1516216 L44.3332394,16.7860811 C40.9655021,8.26581081 32.6837827,2.23067568 22.977926,2.23067568 C10.28752,2.23067568 0.000134925373,12.5340541 0.000134925373,25.2441892 C0.000134925373,37.9543243 10.28752,48.2583784 22.977926,48.2583784 C32.1359857,48.2583784 40.0196752,42.8793243 43.7119081,35.1151351 L35.5711857,30.7874324 Z" id="Fill-1" fill="#222222"></path>
                <polygon id="Fill-3" fill="#222222" points="142.949722 3.23864865 142.949722 38.817027 159.571179 38.817027 159.571179 46.8872973 133.366648 46.8872973 133.366648 3.23864865"></polygon>
                <polygon id="Fill-5" fill="#222222" points="194.823064 11.3091892 194.823064 3.23824324 225.334413 3.23824324 225.334413 11.3091892 214.87095 11.3091892 214.87095 46.8875676 205.287876 46.8875676 205.287876 11.3091892"></polygon>
                <polygon id="Fill-7" fill="#222222" points="111.619039 3.23864865 111.619039 38.817027 128.240496 38.817027 128.240496 46.8872973 102.035964 46.8872973 102.035964 3.23864865"></polygon>
                <polygon id="Fill-9" fill="#222222" points="174.035584 38.8168243 174.035584 28.119527 189.865029 28.119527 189.865029 20.6607432 174.035584 20.6607432 174.035584 11.3093919 189.865029 11.3093919 189.865029 3.23844595 164.452509 3.23844595 164.452509 46.8877703 189.865029 46.8877703 189.865029 38.8168243"></polygon>
                <path d="M85.297797,24.8347973 C85.2674388,24.2868243 85.2208896,23.8057432 85.1331881,23.3030405 C85.0508836,22.8347973 84.9348478,22.3597973 84.7668657,21.8077703 L96.1721075,17.610473 C96.5735104,18.8280405 96.8676478,20.0233108 97.0700358,21.1733108 C97.2784955,22.364527 97.4026269,23.5888514 97.4370328,24.8118243 L97.4377075,24.8300676 L85.297797,24.8347973 Z" id="Fill-11" fill="#5AB45A"></path>
                <g id="Group-15" transform="translate(68.811940, 0.489392)">
                    <mask id="mask-2" fill="white">
                        <use xlink:href="#path-1"></use>
                    </mask>
                    <g id="Clip-14"></g>
                    <path d="M5.55588955,12.5163514 C5.03102985,12.4521622 4.48593134,12.4244595 3.93543582,12.4339189 C3.47803881,12.442027 3.00512537,12.4764865 2.52951343,12.5359459 L0.413883582,0.464324324 C1.54860597,0.292702703 2.63610448,0.207567568 3.65951343,0.19 C4.99797313,0.166351351 6.34722687,0.255540541 7.67084478,0.454189189 L5.57275522,12.5183784 L5.55588955,12.5163514 Z" id="Fill-13" fill="#0596C8" mask="url(#mask-2)"></path>
                </g>
                <path d="M82.8074119,33.0530405 C83.4172746,32.235473 83.9313403,31.3489865 84.3327433,30.3942568 L95.7420328,34.5834459 C94.8447791,36.8800676 93.6230299,39.0023649 92.1226597,40.914527 L92.111191,40.9293919 L82.8074119,33.0530405 Z" id="Fill-16" fill="#E64970"></path>
                <path d="M81.9589337,16.907027 C81.2762113,16.1712162 80.4943188,15.5131081 79.6355188,14.9495946 L85.6970412,4.33135135 C87.8052501,5.63608108 89.6699188,7.22121622 91.2640621,9.03608108 L81.971077,16.9198649 L81.9589337,16.907027 Z" id="Fill-18" fill="#F3B93C"></path>
                <path d="M75.6716812,37.7317568 C76.68632,37.4959459 77.6449648,37.1540541 78.5354722,36.6945946 L84.6077887,47.3006757 C82.4631499,48.477027 80.1768394,49.3094595 77.8048513,49.7993243 L77.787311,49.8027027 L75.6716812,37.7317568 Z" id="Fill-20" fill="#221714"></path>
                <path d="M54.4589164,9.05418919 C56.0894896,7.18864865 57.958206,5.61027027 60.0117701,4.3372973 L66.0827373,14.9413514 C65.2765582,15.4710811 64.5020866,16.1278378 63.7741642,16.9177027 L63.7626955,16.9305405 L54.4589164,9.05418919 Z" id="Fill-22" fill="#221714"></path>
                <path d="M67.964609,49.8096622 C65.5878985,49.3197973 63.2988896,48.4765541 61.1623463,47.3049324 L67.2252179,36.6860135 C68.1487821,37.1630405 69.1020299,37.5231757 70.0809134,37.7522297 L67.9828239,49.8137162 L67.964609,49.8096622 Z" id="Fill-24" fill="#221714"></path>
                <path d="M48.2978191,24.8487838 C48.3585355,22.362973 48.7869236,19.9386486 49.5532997,17.6264865 L60.9673116,21.8177027 C60.6758728,22.7791892 60.4950728,23.7845946 60.4417773,24.8278378 L60.4404281,24.8440541 L48.2978191,24.8487838 Z" id="Fill-26" fill="#221714"></path>
                <path d="M53.6298675,40.9362838 C52.1160048,39.0160135 50.896954,36.8842568 50.0071212,34.600473 L61.4143869,30.4025 C61.8056704,31.3335811 62.310966,32.2261486 62.9390436,33.0639865 L53.6413361,40.950473 L53.6298675,40.9362838 Z" id="Fill-28" fill="#221714"></path>
            </g>
        </g>
    </g>
</svg>